<?xml version="1.0" encoding="UTF-8" standalone="no"?>
<!-- Created with Inkscape (http://www.inkscape.org/) -->

<svg
   xmlns:dc="http://purl.org/dc/elements/1.1/"
   xmlns:cc="http://creativecommons.org/ns#"
   xmlns:rdf="http://www.w3.org/1999/02/22-rdf-syntax-ns#"
   xmlns:svg="http://www.w3.org/2000/svg"
   xmlns="http://www.w3.org/2000/svg"
   xmlns:sodipodi="http://sodipodi.sourceforge.net/DTD/sodipodi-0.dtd"
   xmlns:inkscape="http://www.inkscape.org/namespaces/inkscape"
   width="16"
   height="16"
   viewBox="0 0 16 16"
   id="svg6700"
   version="1.1"
   inkscape:version="0.91 r13725"
   sodipodi:docname="pin-icon.svg">
  <defs
     id="defs6702" />
  <sodipodi:namedview
     id="base"
     pagecolor="#475057"
     bordercolor="#666666"
     borderopacity="1.0"
     inkscape:pageopacity="1"
     inkscape:pageshadow="2"
     inkscape:zoom="31.678384"
     inkscape:cx="23.557473"
     inkscape:cy="11.339531"
     inkscape:document-units="px"
     inkscape:current-layer="layer1"
     showgrid="false"
     units="px"
     inkscape:window-width="1920"
     inkscape:window-height="997"
     inkscape:window-x="1920"
     inkscape:window-y="0"
     inkscape:window-maximized="1" />
  <metadata
     id="metadata6705">
    <rdf:RDF>
      <cc:Work
         rdf:about="">
        <dc:format>image/svg+xml</dc:format>
        <dc:type
           rdf:resource="http://purl.org/dc/dcmitype/StillImage" />
        <dc:title></dc:title>
      </cc:Work>
    </rdf:RDF>
  </metadata>
  <g
     inkscape:label="Layer 1"
     inkscape:groupmode="layer"
     id="layer1"
     transform="translate(0,-1036.3622)">
    <path
       sodipodi:nodetypes="cscsssczccsscscc"
       inkscape:connector-curvature="0"
       id="path4659"
       d="m 12.222042,1037.0677 c -0.535202,-0.5351 -0.973155,-0.4657 -1.379587,-0.059 l -6.4815774,6.4816 -1.8572447,-1.8573 c -0.4763163,-0.4762 -1.51452746,0.5468 -1.0308337,1.0307 l 3.361712,3.3616 c 1.342e-4,10e-5 -3.91649775,4.2339 -4.29730937,4.6145 -0.36002057,0.3599 -0.37262933,0.7516 0.0147549,1.1391 0.38751841,0.3873 0.77906097,0.3748 1.13894727,0.013 0.3806774,-0.3808 4.6144066,-4.2974 4.6144066,-4.2974 l 3.3618463,3.3618 c 0.4839621,0.4839 1.5068821,-0.5545 1.0307001,-1.0305 l -1.8573792,-1.8574 6.4817112,-6.4817 c 0.406432,-0.4064 0.475646,-0.8444 -0.05902,-1.3795 z"
       style="display:inline;fill:#ffffff;fill-opacity:1;fill-rule:evenodd;stroke:none;stroke-width:1px;stroke-linecap:butt;stroke-linejoin:miter;stroke-opacity:1" />
  </g>
</svg>
