<?xml version="1.0" encoding="utf-8"?>
<!-- Generator: Adobe Illustrator 16.0.0, SVG Export Plug-In . SVG Version: 6.00 Build 0)  -->
<!DOCTYPE svg PUBLIC "-//W3C//DTD SVG 1.0//EN" "http://www.w3.org/TR/2001/REC-SVG-20010904/DTD/svg10.dtd">
<svg version="1.0" id="Layer_1" xmlns="http://www.w3.org/2000/svg" xmlns:xlink="http://www.w3.org/1999/xlink" x="0px" y="0px"
	 width="512px" height="512px" viewBox="0 0 512 512" enable-background="new 0 0 512 512" xml:space="preserve">
<g>
	<g>
		<defs>
			<circle id="SVGID_1_" cx="256" cy="256.001" r="230"/>
		</defs>
		<clipPath id="SVGID_2_">
			<use xlink:href="#SVGID_1_"  overflow="visible"/>
		</clipPath>
		<g clip-path="url(#SVGID_2_)">
			<defs>
				<circle id="SVGID_3_" cx="256" cy="256.001" r="256.138"/>
			</defs>
			<clipPath id="SVGID_4_">
				<use xlink:href="#SVGID_3_"  overflow="visible"/>
			</clipPath>
			<path clip-path="url(#SVGID_4_)" fill="#F9DB46" d="M247.355,119.844l-24.942,400.998l126.633,40.291
				c0,0,182.271-139.101,192.823-242.711c10.552-103.607,10.552-208.171,10.552-208.171L247.355,119.844z"/>
			<path clip-path="url(#SVGID_4_)" fill="#71D375" d="M349.276,318.482L212.439,556.336c0,0-211.628-95.934-233.692-176.515
				C-43.317,299.238-33.726,147.664-6.864,89.145c26.862-58.519,31.659-24.943,31.659-24.943L349.276,318.482z"/>
			<path clip-path="url(#SVGID_4_)" fill="#E04D2B" d="M39.856,103.534l117.02,208.562l99.854-170.167h260.196
				c0,0-141.979-229.3-315.618-183.252C27.672,4.724,39.856,103.534,39.856,103.534z"/>
		</g>
	</g>
	<g>
		<path fill="#25ABD9" d="M256,357.56c-55.998,0-101.557-45.559-101.557-101.558c0-56,45.559-101.559,101.557-101.559
			c56,0,101.559,45.559,101.559,101.559C357.559,312.001,312,357.56,256,357.56z"/>
		<path fill="#FFFFFF" d="M256,166.942c49.107,0,89.059,39.952,89.059,89.059c0,49.107-39.951,89.058-89.059,89.058
			c-49.106,0-89.057-39.951-89.057-89.058C166.943,206.894,206.894,166.942,256,166.942 M256,141.942
			c-62.991,0-114.057,51.065-114.057,114.059c0,62.991,51.065,114.058,114.057,114.058s114.059-51.067,114.059-114.058
			C370.059,193.007,318.991,141.942,256,141.942L256,141.942z"/>
	</g>
</g>
</svg>
